<svg width="18" height="18" viewBox="0 0 18 18" fill="none" xmlns="http://www.w3.org/2000/svg">
<path d="M18 15.9191L17.7946 15.7379C17.212 15.2188 16.702 14.6235 16.2785 13.9681C15.816 13.0636 15.5387 12.0758 15.4631 11.0628V8.07886C15.4671 6.48762 14.8899 4.94968 13.8399 3.75401C12.7899 2.55834 11.3395 1.78723 9.76107 1.58557V0.806376C9.76107 0.592512 9.67612 0.387407 9.52489 0.236182C9.37367 0.0849573 9.16856 0 8.9547 0C8.74083 0 8.53573 0.0849573 8.3845 0.236182C8.23328 0.387407 8.14832 0.592512 8.14832 0.806376V1.59765C6.58405 1.81385 5.15112 2.58962 4.11495 3.78127C3.07878 4.97293 2.50957 6.49972 2.51275 8.07886V11.0628C2.4371 12.0758 2.15987 13.0636 1.69732 13.9681C1.28107 14.6219 0.779312 15.2171 0.205369 15.7379L0 15.9191V17.6225H18V15.9191Z" fill="#B1B1B1"/>
</svg>
