<svg width="20" height="20" viewBox="0 0 20 20" fill="none" xmlns="http://www.w3.org/2000/svg">
<path d="M10.4084 0.75902C10.4267 0.34521 10.1057 -0.00802242 9.69166 0.00473521C7.38122 0.0759299 5.15772 0.94643 3.40794 2.48038C1.65815 4.01433 0.504094 6.10475 0.131089 8.386C0.0642493 8.79479 0.372426 9.15927 0.785069 9.1953C1.19771 9.23133 1.55807 8.92504 1.63032 8.51717C1.96614 6.62134 2.93783 4.88728 4.39674 3.60832C5.85566 2.32937 7.70199 1.59301 9.62547 1.50824C10.0393 1.49 10.3901 1.17283 10.4084 0.75902Z" fill="white"/>
<path d="M0.922161 11.7763C0.515656 11.8559 0.247824 12.2509 0.357591 12.6503C0.970154 14.8792 2.33915 16.8357 4.24159 18.1756C6.14403 19.5156 8.44723 20.1456 10.7522 19.9717C11.1653 19.9405 11.447 19.5553 11.385 19.1457C11.323 18.7362 10.9405 18.458 10.5271 18.4837C8.60549 18.6031 6.69154 18.0665 5.10535 16.9493C3.51917 15.8321 2.36925 14.2107 1.83449 12.3611C1.71944 11.9632 1.32866 11.6968 0.922161 11.7763Z" fill="white"/>
<path d="M14.0712 18.3059C14.2535 18.6778 14.7045 18.834 15.0617 18.6243C17.0553 17.4544 18.5895 15.6246 19.3898 13.4396C20.1902 11.2546 20.201 8.8668 19.4349 6.68591C19.2976 6.29511 18.8524 6.12296 18.473 6.28913V6.28913C18.0936 6.4553 17.9242 6.89685 18.0563 7.28943C18.6703 9.11424 18.6487 11.1019 17.9814 12.9236C17.314 14.7454 16.0466 16.2767 14.3992 17.2731C14.0447 17.4875 13.8889 17.934 14.0712 18.3059V18.3059Z" fill="white"/>
<circle cx="15.1001" cy="2.5" r="2.5" fill="#00FF66"/>
</svg>

