<svg width="27" height="26" viewBox="0 0 27 26" fill="none" xmlns="http://www.w3.org/2000/svg">
<path d="M15.3727 1.63614C14.8329 2.06807 14.7459 2.85046 15.1779 3.39036L22.9855 13.1496C25.1414 15.8445 24.7086 19.7775 22.0092 21.9371C19.3097 24.0967 15.3776 23.6557 13.2217 20.9608L3.85107 9.24794C2.55895 7.63284 2.81698 5.27284 4.43665 3.97706C6.05633 2.68129 8.41541 2.94755 9.70752 4.56265L17.5188 14.3265C17.9507 14.8663 17.8592 15.6524 17.3239 16.0807C16.7886 16.5089 16.0016 16.4257 15.5697 15.8858L9.32141 8.07565C8.88948 7.53575 8.10251 7.45249 7.56719 7.88076C7.0273 8.31268 6.94038 9.09508 7.37231 9.63497L13.6206 17.4451C14.9164 19.0648 17.2718 19.3265 18.8915 18.0307C20.5111 16.7349 20.7728 14.3795 19.477 12.7598L11.6694 3.00058C9.5089 0.309354 5.57221 -0.128002 2.87733 2.02796C0.182445 4.18393 -0.250337 8.11695 1.90563 10.8118L11.2762 22.5247C14.296 26.2994 19.8021 26.907 23.5722 23.8908C27.3423 20.8746 27.9544 15.3649 24.9382 11.5948L17.127 1.83103C16.695 1.29114 15.9126 1.20422 15.3727 1.63614Z" fill="white" fill-opacity="0.5"/>
</svg>
