<svg width="23" height="24" viewBox="0 0 23 24" fill="none" xmlns="http://www.w3.org/2000/svg">
<path d="M14.25 1.02534e-06C12.6605 -0.000791296 11.1045 0.457626 9.76936 1.32012C8.43418 2.18262 7.37658 3.41246 6.72377 4.86176C6.07095 6.31105 5.85071 7.91807 6.08954 9.48956C6.32837 11.0611 7.01609 12.5301 8.07 13.72L0 22.88L1.12 23.88L9.17 14.76C10.2055 15.5699 11.4195 16.1207 12.7109 16.3665C14.0023 16.6123 15.3338 16.5459 16.5944 16.173C17.855 15.8 19.0082 15.1312 19.958 14.2223C20.9078 13.3134 21.6267 12.1908 22.0548 10.9478C22.4829 9.70486 22.6078 8.3776 22.4191 7.07661C22.2303 5.77561 21.7335 4.53854 20.9699 3.46843C20.2063 2.39832 19.1981 1.52616 18.0292 0.924585C16.8603 0.323011 15.5646 0.0094431 14.25 0.010001V1.02534e-06ZM14.25 15C12.4598 15 10.7429 14.2888 9.47703 13.023C8.21116 11.7571 7.5 10.0402 7.5 8.25C7.5 6.45979 8.21116 4.7429 9.47703 3.47703C10.7429 2.21116 12.4598 1.5 14.25 1.5C16.0402 1.5 17.7571 2.21116 19.023 3.47703C20.2888 4.7429 21 6.45979 21 8.25C21 10.0402 20.2888 11.7571 19.023 13.023C17.7571 14.2888 16.0402 15 14.25 15Z" fill="#B8B8B8"/>
</svg>
