<svg width="19" height="18" viewBox="0 0 19 18" fill="none" xmlns="http://www.w3.org/2000/svg">
<path d="M2.85416 0.843983L2.10043 1.39739C1.42806 1.89064 0.91061 2.56573 0.609019 3.34319C0.307429 4.12064 0.234253 4.96808 0.398106 5.78572C0.911154 8.34702 2.70291 10.9197 5.74718 13.5198C8.78381 16.1133 11.5995 17.4799 14.2056 17.5916C15.043 17.6274 15.873 17.4221 16.597 16.9999C17.3211 16.5778 17.9086 15.9566 18.2899 15.2102L18.7154 14.3778C18.9909 13.8382 19.0612 13.217 18.9132 12.6295C18.7652 12.042 18.4089 11.5282 17.9106 11.1836L15.5278 9.5338C15.2058 9.31118 14.8222 9.19489 14.4308 9.20124C14.0393 9.2076 13.6597 9.33627 13.3451 9.56922L11.1895 11.1642L11.1312 11.1981C10.8786 11.3313 10.0605 10.9724 8.82445 9.91661C7.53136 8.81202 7.07644 8.05923 7.22373 7.77098L8.0481 6.18848C8.34899 5.61019 8.46133 4.95221 8.36933 4.30685C8.27734 3.66148 7.98564 3.06109 7.53515 2.58991L6.14334 1.13164C5.72375 0.692509 5.15867 0.421099 4.55362 0.368087C3.94857 0.315076 3.34491 0.484087 2.85534 0.843565L2.85416 0.843983ZM5.2384 1.99591L6.63138 3.45376C6.90192 3.73629 7.07714 4.09648 7.13242 4.48372C7.18771 4.87096 7.12029 5.26579 6.93962 5.61274L6.11331 7.19725C5.58784 8.22293 6.30148 9.4067 8.01128 10.8678C9.6214 12.2421 10.8334 12.7732 11.7579 12.2787L11.8932 12.1963L14.0883 10.5741C14.1931 10.4963 14.3197 10.4533 14.4502 10.4511C14.5807 10.4489 14.7087 10.4876 14.8161 10.5618L17.1989 12.2116C17.4482 12.3839 17.6265 12.6408 17.7006 12.9347C17.7746 13.2286 17.7394 13.5394 17.6015 13.8092L17.176 14.6417C16.9036 15.1746 16.4839 15.618 15.9668 15.9194C15.4498 16.2208 14.8571 16.3674 14.2591 16.3418C11.9724 16.2443 9.40171 14.9965 6.55917 12.5691C3.71058 10.1358 2.07525 7.78757 1.62418 5.5399C1.50704 4.95573 1.55929 4.35026 1.77478 3.79479C1.99026 3.23933 2.36001 2.75703 2.84046 2.40469L3.59537 1.85087C3.84019 1.67152 4.14188 1.58735 4.44419 1.61404C4.7465 1.64072 5.02878 1.77645 5.2384 1.99591Z" fill="#B3B3B3"/>
</svg>
