<svg width="20" height="20" viewBox="0 0 20 20" fill="none" xmlns="http://www.w3.org/2000/svg">
<path d="M9.12782 0H10.872C11.027 0 11.1046 0.0740741 11.1046 0.222222V19.7778C11.1046 19.9259 11.027 20 10.872 20H9.12782C8.97278 20 8.89526 19.9259 8.89526 19.7778V0.222222C8.89526 0.0740741 8.97278 0 9.12782 0Z" fill="white"/>
<path d="M0.232558 8.94446H19.7674C19.9225 8.94446 20 9.01853 20 9.16668V10.8333C20 10.9815 19.9225 11.0556 19.7674 11.0556H0.232558C0.0775194 11.0556 0 10.9815 0 10.8333V9.16668C0 9.01853 0.0775194 8.94446 0.232558 8.94446Z" fill="white"/>
</svg>
