<svg width="20" height="20" viewBox="0 0 20 20" fill="none" xmlns="http://www.w3.org/2000/svg">
<path d="M10 20C4.477 20 0 15.523 0 10C0 4.477 4.477 0 10 0C15.523 0 20 4.477 20 10C19.994 15.52 15.52 19.994 10 20ZM9 15V17H11V15H9ZM10 5C10.5304 5 11.0391 5.21071 11.4142 5.58579C11.7893 5.96086 12 6.46957 12 7C12.0017 7.26264 11.9503 7.52292 11.8489 7.76522C11.7475 8.00751 11.5982 8.22682 11.41 8.41L10.17 9.67C9.42144 10.4217 9.00081 11.4391 9 12.5V13H11C10.9617 12.4698 11.0475 11.938 11.2506 11.4467C11.4536 10.9555 11.7685 10.5183 12.17 10.17L13.07 9.25C13.3661 8.95509 13.6008 8.60437 13.7604 8.21816C13.92 7.83195 14.0015 7.4179 14 7C14 5.93913 13.5786 4.92172 12.8284 4.17157C12.0783 3.42143 11.0609 3 10 3C8.93913 3 7.92172 3.42143 7.17157 4.17157C6.42143 4.92172 6 5.93913 6 7H8C8 6.46957 8.21071 5.96086 8.58579 5.58579C8.96086 5.21071 9.46957 5 10 5Z" fill="#B1B1B1"/>
</svg>
