<svg width="30" height="30" viewBox="0 0 30 30" fill="none" xmlns="http://www.w3.org/2000/svg">
<path d="M15 22.5C16.5913 22.5 18.1174 21.8679 19.2426 20.7426C20.3679 19.6174 21 18.0913 21 16.5H9C9 18.0913 9.63214 19.6174 10.7574 20.7426C11.8826 21.8679 13.4087 22.5 15 22.5Z" fill="white" fill-opacity="0.5"/>
<path d="M12 12C12 12.3978 11.842 12.7794 11.5607 13.0607C11.2794 13.342 10.8978 13.5 10.5 13.5C10.1022 13.5 9.72064 13.342 9.43934 13.0607C9.15804 12.7794 9 12.3978 9 12C9 11.6022 9.15804 11.2206 9.43934 10.9393C9.72064 10.658 10.1022 10.5 10.5 10.5C10.8978 10.5 11.2794 10.658 11.5607 10.9393C11.842 11.2206 12 11.6022 12 12Z" fill="white" fill-opacity="0.5"/>
<path d="M19.5 13.5C19.8978 13.5 20.2794 13.342 20.5607 13.0607C20.842 12.7794 21 12.3978 21 12C21 11.6022 20.842 11.2206 20.5607 10.9393C20.2794 10.658 19.8978 10.5 19.5 10.5C19.1022 10.5 18.7206 10.658 18.4393 10.9393C18.158 11.2206 18 11.6022 18 12C18 12.3978 18.158 12.7794 18.4393 13.0607C18.7206 13.342 19.1022 13.5 19.5 13.5Z" fill="white" fill-opacity="0.5"/>
<path fill-rule="evenodd" clip-rule="evenodd" d="M30 15C30 23.2845 23.2845 30 15 30C6.7155 30 0 23.2845 0 15C0 6.7155 6.7155 0 15 0C23.2845 0 30 6.7155 30 15ZM27 15C27 18.1826 25.7357 21.2348 23.4853 23.4853C21.2348 25.7357 18.1826 27 15 27C11.8174 27 8.76516 25.7357 6.51472 23.4853C4.26428 21.2348 3 18.1826 3 15C3 11.8174 4.26428 8.76516 6.51472 6.51472C8.76516 4.26428 11.8174 3 15 3C18.1826 3 21.2348 4.26428 23.4853 6.51472C25.7357 8.76516 27 11.8174 27 15V15Z" fill="white" fill-opacity="0.5"/>
</svg>
