<svg width="21" height="21" viewBox="0 0 21 21" fill="none" xmlns="http://www.w3.org/2000/svg">
<path d="M9.335 11.135H11.635L10.485 7.485L9.335 11.135ZM18.485 7.175V4.485C18.485 3.385 17.585 2.485 16.485 2.485H13.795L11.895 0.585C11.115 -0.195 9.845 -0.195 9.065 0.585L7.175 2.485H4.485C3.385 2.485 2.485 3.385 2.485 4.485V7.175L0.585 9.075C-0.195 9.855 -0.195 11.125 0.585 11.905L2.485 13.805V16.485C2.485 17.585 3.385 18.485 4.485 18.485H7.175L9.075 20.385C9.855 21.165 11.125 21.165 11.905 20.385L13.805 18.485H16.485C17.585 18.485 18.485 17.585 18.485 16.485V13.795L20.385 11.895C21.165 11.115 21.165 9.845 20.385 9.065L18.485 7.175ZM12.575 13.885L12.085 12.485H8.885L8.395 13.885C8.265 14.245 7.935 14.485 7.555 14.485C7.41198 14.4858 7.27089 14.452 7.14372 14.3866C7.01655 14.3211 6.90707 14.226 6.8246 14.1091C6.74212 13.9923 6.68908 13.8572 6.67 13.7155C6.65092 13.5737 6.66636 13.4295 6.715 13.295L9.155 6.435C9.355 5.865 9.885 5.485 10.485 5.485C11.085 5.485 11.615 5.865 11.825 6.425L14.265 13.285C14.3136 13.4195 14.3291 13.5637 14.31 13.7055C14.2909 13.8472 14.2379 13.9823 14.1554 14.0991C14.0729 14.216 13.9634 14.3111 13.8363 14.3766C13.7091 14.442 13.568 14.4758 13.425 14.475C13.239 14.48 13.0562 14.4254 12.9033 14.3193C12.7504 14.2132 12.6354 14.061 12.575 13.885Z" fill="#B1B1B1"/>
</svg>
