<svg width="22" height="22" viewBox="0 0 22 22" fill="none" xmlns="http://www.w3.org/2000/svg">
<path d="M19.079 14.3426L21.7047 11.717C21.7983 11.6236 21.8726 11.5126 21.9232 11.3904C21.9739 11.2682 22 11.1373 22 11.005C22 10.8728 21.9739 10.7418 21.9232 10.6196C21.8726 10.4975 21.7983 10.3865 21.7047 10.2931L19.079 7.6573V3.93087C19.079 3.37544 18.6246 2.921 18.0691 2.921H14.3427L11.717 0.295331C11.6236 0.201712 11.5126 0.127439 11.3904 0.0767618C11.2683 0.0260849 11.1373 0 11.005 0C10.8728 0 10.7418 0.0260849 10.6197 0.0767618C10.4975 0.127439 10.3865 0.201712 10.2931 0.295331L7.65732 2.921H3.93088C3.37545 2.921 2.92101 3.37544 2.92101 3.93087V7.6573L0.295332 10.283C0.201713 10.3764 0.127439 10.4874 0.076762 10.6095C0.026085 10.7317 0 10.8627 0 10.9949C0 11.1272 0.026085 11.2581 0.076762 11.3803C0.127439 11.5025 0.201713 11.6135 0.295332 11.7069L2.92101 14.3325V18.0691C2.92101 18.6245 3.37545 19.0789 3.93088 19.0789H7.65732L10.283 21.7046C10.6768 22.0985 11.3131 22.0985 11.7069 21.7046L14.3326 19.0789H18.0691C18.6246 19.0789 19.079 18.6245 19.079 18.0691V14.3426ZM11 15.9483V6.0516C11 5.43558 11.5554 4.93064 12.1614 5.05183C14.9486 5.59716 17.0592 8.05115 17.0592 11C17.0592 13.9488 14.9486 16.4028 12.1614 16.9481C11.5554 17.0693 11 16.5644 11 15.9483Z" fill="#B1B1B1"/>
</svg>
